<mxfile host="app.diagrams.net" modified="2024-04-06T15:38:01.091Z" agent="Mozilla/5.0 (X11; Linux x86_64; rv:124.0) Gecko/20100101 Firefox/124.0" etag="BB1lvSn-0lrjBnSrc8CL" version="24.2.2" type="github">
  <diagram id="R2lEEEUBdFMjLlhIrx00" name="Page-1">
    <mxGraphModel dx="1426" dy="718" grid="1" gridSize="10" guides="1" tooltips="1" connect="1" arrows="1" fold="1" page="1" pageScale="1" pageWidth="1169" pageHeight="827" math="0" shadow="0" extFonts="Permanent Marker^https://fonts.googleapis.com/css?family=Permanent+Marker">
      <root>
        <mxCell id="0" />
        <mxCell id="1" parent="0" />
        <mxCell id="jw9ZCJ-UWcMLA9WgeMhE-51" value="" style="edgeStyle=orthogonalEdgeStyle;rounded=0;orthogonalLoop=1;jettySize=auto;html=1;" edge="1" parent="1" source="jw9ZCJ-UWcMLA9WgeMhE-24" target="jw9ZCJ-UWcMLA9WgeMhE-45">
          <mxGeometry relative="1" as="geometry" />
        </mxCell>
        <mxCell id="jw9ZCJ-UWcMLA9WgeMhE-24" value="Colaborador" style="whiteSpace=wrap;html=1;align=center;" vertex="1" parent="1">
          <mxGeometry x="730" y="380" width="100" height="40" as="geometry" />
        </mxCell>
        <mxCell id="jw9ZCJ-UWcMLA9WgeMhE-28" value="Contratado" style="shape=ext;margin=3;double=1;whiteSpace=wrap;html=1;align=center;" vertex="1" parent="1">
          <mxGeometry x="645" y="690" width="100" height="40" as="geometry" />
        </mxCell>
        <mxCell id="jw9ZCJ-UWcMLA9WgeMhE-29" value="TAP" style="whiteSpace=wrap;html=1;align=center;" vertex="1" parent="1">
          <mxGeometry x="100" y="510" width="100" height="40" as="geometry" />
        </mxCell>
        <mxCell id="jw9ZCJ-UWcMLA9WgeMhE-30" value="Clientes" style="whiteSpace=wrap;html=1;align=center;" vertex="1" parent="1">
          <mxGeometry x="60" y="130" width="100" height="40" as="geometry" />
        </mxCell>
        <mxCell id="jw9ZCJ-UWcMLA9WgeMhE-32" value="Editoras" style="whiteSpace=wrap;html=1;align=center;" vertex="1" parent="1">
          <mxGeometry x="300" y="270" width="100" height="40" as="geometry" />
        </mxCell>
        <mxCell id="jw9ZCJ-UWcMLA9WgeMhE-37" value="Livros" style="shape=ext;margin=3;double=1;whiteSpace=wrap;html=1;align=center;" vertex="1" parent="1">
          <mxGeometry x="300" y="160" width="100" height="40" as="geometry" />
        </mxCell>
        <mxCell id="jw9ZCJ-UWcMLA9WgeMhE-38" value="Pedido" style="shape=ext;margin=3;double=1;whiteSpace=wrap;html=1;align=center;" vertex="1" parent="1">
          <mxGeometry x="290" y="40" width="100" height="40" as="geometry" />
        </mxCell>
        <mxCell id="jw9ZCJ-UWcMLA9WgeMhE-39" value="Estoque" style="shape=ext;margin=3;double=1;whiteSpace=wrap;html=1;align=center;" vertex="1" parent="1">
          <mxGeometry x="510" y="130" width="100" height="40" as="geometry" />
        </mxCell>
        <mxCell id="jw9ZCJ-UWcMLA9WgeMhE-40" value="Departamento" style="shape=ext;margin=3;double=1;whiteSpace=wrap;html=1;align=center;" vertex="1" parent="1">
          <mxGeometry x="390" y="580" width="100" height="40" as="geometry" />
        </mxCell>
        <mxCell id="jw9ZCJ-UWcMLA9WgeMhE-41" value="Projeto" style="shape=ext;margin=3;double=1;whiteSpace=wrap;html=1;align=center;" vertex="1" parent="1">
          <mxGeometry x="40" y="580" width="100" height="40" as="geometry" />
        </mxCell>
        <mxCell id="jw9ZCJ-UWcMLA9WgeMhE-42" value="Estudo" style="shape=ext;margin=3;double=1;whiteSpace=wrap;html=1;align=center;" vertex="1" parent="1">
          <mxGeometry x="180" y="580" width="100" height="40" as="geometry" />
        </mxCell>
        <mxCell id="jw9ZCJ-UWcMLA9WgeMhE-43" value="Certificação" style="shape=ext;margin=3;double=1;whiteSpace=wrap;html=1;align=center;" vertex="1" parent="1">
          <mxGeometry x="40" y="640" width="100" height="40" as="geometry" />
        </mxCell>
        <mxCell id="jw9ZCJ-UWcMLA9WgeMhE-44" value="Diagrama Entidade Relacionamento" style="text;html=1;align=center;verticalAlign=middle;whiteSpace=wrap;rounded=0;" vertex="1" parent="1">
          <mxGeometry x="585" y="20" width="60" height="30" as="geometry" />
        </mxCell>
        <mxCell id="jw9ZCJ-UWcMLA9WgeMhE-52" value="" style="edgeStyle=orthogonalEdgeStyle;rounded=0;orthogonalLoop=1;jettySize=auto;html=1;" edge="1" parent="1" source="jw9ZCJ-UWcMLA9WgeMhE-45" target="jw9ZCJ-UWcMLA9WgeMhE-50">
          <mxGeometry relative="1" as="geometry" />
        </mxCell>
        <mxCell id="jw9ZCJ-UWcMLA9WgeMhE-53" value="" style="edgeStyle=orthogonalEdgeStyle;rounded=0;orthogonalLoop=1;jettySize=auto;html=1;" edge="1" parent="1" source="jw9ZCJ-UWcMLA9WgeMhE-45" target="jw9ZCJ-UWcMLA9WgeMhE-49">
          <mxGeometry relative="1" as="geometry" />
        </mxCell>
        <mxCell id="jw9ZCJ-UWcMLA9WgeMhE-54" value="" style="edgeStyle=orthogonalEdgeStyle;rounded=0;orthogonalLoop=1;jettySize=auto;html=1;" edge="1" parent="1" source="jw9ZCJ-UWcMLA9WgeMhE-45" target="jw9ZCJ-UWcMLA9WgeMhE-48">
          <mxGeometry relative="1" as="geometry" />
        </mxCell>
        <mxCell id="jw9ZCJ-UWcMLA9WgeMhE-45" value="Trabalha em" style="shape=rhombus;perimeter=rhombusPerimeter;whiteSpace=wrap;html=1;align=center;" vertex="1" parent="1">
          <mxGeometry x="875" y="370" width="120" height="60" as="geometry" />
        </mxCell>
        <mxCell id="jw9ZCJ-UWcMLA9WgeMhE-46" value="Colaborador" style="whiteSpace=wrap;html=1;align=center;" vertex="1" parent="1">
          <mxGeometry x="380" y="500" width="100" height="40" as="geometry" />
        </mxCell>
        <mxCell id="jw9ZCJ-UWcMLA9WgeMhE-48" value="Função" style="whiteSpace=wrap;html=1;align=center;" vertex="1" parent="1">
          <mxGeometry x="1040" y="380" width="100" height="40" as="geometry" />
        </mxCell>
        <mxCell id="jw9ZCJ-UWcMLA9WgeMhE-49" value="Projeto 1" style="whiteSpace=wrap;html=1;align=center;" vertex="1" parent="1">
          <mxGeometry x="885" y="460" width="100" height="40" as="geometry" />
        </mxCell>
        <mxCell id="jw9ZCJ-UWcMLA9WgeMhE-50" value="Projeto 2" style="whiteSpace=wrap;html=1;align=center;" vertex="1" parent="1">
          <mxGeometry x="885" y="300" width="100" height="40" as="geometry" />
        </mxCell>
      </root>
    </mxGraphModel>
  </diagram>
</mxfile>
